<svg xmlns="http://www.w3.org/2000/svg" width="167.363" height="167.356" viewBox="0 0 44.281461 44.27961"><path d="M39.29 44.28H4.993A4.993 4.993 0 0 1 0 39.286V4.991A4.994 4.994 0 0 1 4.993 0H39.29a4.992 4.992 0 0 1 4.991 4.991v34.295a4.991 4.991 0 0 1-4.991 4.994"/><path fill="#FFF" d="M29.714 17.362V8.197l2.668 2.628c.01.008.02.01.03.019l1.973 1.943a1.06 1.06 0 0 0 1.486 0c.409-.402.409-1.059 0-1.46L28.97 4.528a.412.412 0 0 0-.29-.119l-.004.001h-.016a.409.409 0 0 0-.289.118l-5.608 5.524c-.739-3.207-3.651-5.61-7.126-5.61-4.034 0-7.314 3.232-7.314 7.207 0 3.621 2.727 6.619 6.264 7.124v4.646H8.863c-.58 0-1.05.465-1.05 1.035 0 .568.47 1.033 1.05 1.033h5.724v5.171c0 .57.47 1.033 1.05 1.033.579 0 1.05-.463 1.05-1.033v-5.17h4.744c.496 3.5 3.547 6.203 7.235 6.203 4.032 0 7.313-3.233 7.313-7.207 0-3.621-2.728-6.62-6.265-7.122m4.155 7.122c0 2.828-2.333 5.128-5.203 5.128-2.871 0-5.204-2.3-5.204-5.128 0-2.825 2.333-5.128 5.204-5.128 2.87 0 5.203 2.303 5.203 5.128M15.637 6.52c2.87 0 5.203 2.302 5.203 5.13 0 2.826-2.334 5.127-5.203 5.127-2.87 0-5.205-2.301-5.205-5.128s2.335-5.129 5.205-5.129m7.194 6.389 4.786-4.713v9.166c-3.183.452-5.704 2.926-6.176 6.057h-4.755v-4.646c3.116-.445 5.598-2.825 6.145-5.864M18.001 39.728h.836v-4.54h-.836v1.63h-1.587v.74h1.587zM15.134 38.894h-.809v1.903h4.71v-.741h-3.9z"/><path fill="#FFF" d="M15.027 37.531c.098.256.236.532.409.82.202.336.393.595.58.789l.041.041.71-.468-.059-.057a4.19 4.19 0 0 1-.84-1.16 3.76 3.76 0 0 1-.416-1.694c0-.013.001-.04.016-.097.02-.085.02-.098.02-.106a.143.143 0 0 0-.093-.142c-.028-.011-.085-.026-.253-.026h-.485v.066c0 .7-.146 1.347-.438 1.925-.23.46-.528.847-.887 1.15l-.062.052.647.49.044-.039a3.77 3.77 0 0 0 .632-.743c.174-.255.318-.524.434-.8M21.315 39.576c.223-.073.645-.111 1.256-.111.604 0 1.024.038 1.246.11.202.068.3.165.3.297 0 .132-.098.23-.3.294-.221.076-.64.113-1.246.113-.602 0-1.021-.037-1.249-.113-.206-.065-.306-.162-.306-.294 0-.132.098-.229.3-.296m3.073-.561a1.486 1.486 0 0 0-.175-.07h.732v-3.737h-.836v1.473h-1.454v.741h1.454v1.49c-.34-.096-.809-.147-1.418-.153l.037-.04c.075-.087.152-.159.23-.213a1.63 1.63 0 0 1 .372-.196l.125-.05-.116-.067c-.491-.286-.86-.599-1.098-.931a1.836 1.836 0 0 1-.35-1.01h1.29v-.726H19.77v.726h1.333c-.019.371-.19.74-.512 1.096-.311.347-.707.626-1.175.827l-.108.047.096.067c.13.09.233.168.303.233.068.063.137.142.212.24l.037.047.053-.03a4.09 4.09 0 0 0 .932-.714c.217-.22.391-.442.52-.662.112.237.262.467.448.682.223.256.469.472.728.644l.045.03h-.11c-.87 0-1.465.082-1.824.253-.372.175-.562.464-.562.86 0 .39.19.68.561.858.356.17.97.257 1.824.257.851 0 1.464-.086 1.822-.255.371-.176.561-.466.561-.86 0-.391-.19-.68-.565-.857M27.317 39.577c.225-.074.664-.112 1.304-.112.626 0 1.06.038 1.288.112.207.066.308.163.308.295 0 .133-.1.23-.306.294-.226.076-.66.113-1.29.113s-1.066-.037-1.298-.113c-.21-.065-.313-.162-.313-.294 0-.132.101-.229.307-.295m3.127-.562c-.365-.172-.96-.257-1.823-.257-.882 0-1.485.082-1.843.254-.373.175-.561.464-.561.86 0 .39.19.679.567.857.362.171.98.258 1.837.258.853 0 1.467-.086 1.827-.255.374-.177.564-.466.564-.86 0-.391-.191-.68-.568-.857M27.184 37.342a3.917 3.917 0 0 0 1.047 1.33l.04.031.688-.447-.067-.057a5.13 5.13 0 0 1-.585-.566 3.106 3.106 0 0 1-.504-.782 2.649 2.649 0 0 1-.213-1.057c0-.027.004-.061.012-.102a.783.783 0 0 0 .016-.093.15.15 0 0 0-.1-.146.729.729 0 0 0-.245-.028h-.484v.066c0 .454-.075.89-.223 1.296a3.941 3.941 0 0 1-.513.951c-.155.21-.352.431-.585.66l-.063.062.696.372.036-.035c.218-.209.414-.432.586-.665.191-.259.346-.525.461-.79"/><path fill="#FFF" d="M30.14 38.904h.837v-3.73h-.837v1.34h-1.65v.74h1.65z"/></svg>